<svg fill="none" xmlns="http://www.w3.org/2000/svg" viewBox="0 0 16 16">
  <path d="M14 3H1v11h13V3z" fill="#fff"/>
  <path d="M14 1v13H1V1h13zm0-1H1a1 1 0 00-1 1v13a1 1 0 001 1h13a1 1 0 001-1V1a1 1 0 00-1-1z" fill="#798288"/>
  <path d="M14 1H1v2h13V1z" fill="#798288"/>
  <path d="M3.5 2a.5.5 0 100-1 .5.5 0 000 1zm8 0a.5.5 0 100-1 .5.5 0 000 1z" fill="#fff"/>
  <path d="M4.5 5h-2a.5.5 0 00-.5.5v2a.5.5 0 00.5.5h2a.5.5 0 00.5-.5v-2a.5.5 0 00-.5-.5z" fill="#D65633"/>
  <path d="M12.5 5h-2a.5.5 0 00-.5.5v2a.5.5 0 00.5.5h2a.5.5 0 00.5-.5v-2a.5.5 0 00-.5-.5zm-4 0h-2a.5.5 0 00-.5.5v2a.5.5 0 00.5.5h2a.5.5 0 00.5-.5v-2a.5.5 0 00-.5-.5z" fill="#C1C5C6"/>
  <path d="M12.5 9h-2a.5.5 0 00-.5.5v2a.5.5 0 00.5.5h2a.5.5 0 00.5-.5v-2a.5.5 0 00-.5-.5z" fill="#75AD15"/>
  <path d="M4 8.5V10h2V8l3 2.5L6 13v-2H3V8.5h1z" fill="#576672"/>
</svg>
