<svg width="32" height="32" viewBox="0 0 32 32" fill="none" xmlns="http://www.w3.org/2000/svg">
<path d="M29 5H2V28H29V5Z" fill="white"/>
<path d="M30 1H25V3C25 3.53043 24.7893 4.03914 24.4142 4.41421C24.0391 4.78929 23.5304 5 23 5C22.4696 5 21.9609 4.78929 21.5858 4.41421C21.2107 4.03914 21 3.53043 21 3V1H10V3C10 3.53043 9.78929 4.03914 9.41421 4.41421C9.03914 4.78929 8.53043 5 8 5C7.46957 5 6.96086 4.78929 6.58579 4.41421C6.21071 4.03914 6 3.53043 6 3V1H1C0.734784 1 0.48043 1.10536 0.292893 1.29289C0.105357 1.48043 0 1.73478 0 2L0 29C0 29.2652 0.105357 29.5196 0.292893 29.7071C0.48043 29.8946 0.734784 30 1 30H30C30.2652 30 30.5196 29.8946 30.7071 29.7071C30.8946 29.5196 31 29.2652 31 29V2C31 1.73478 30.8946 1.48043 30.7071 1.29289C30.5196 1.10536 30.2652 1 30 1ZM29 28H2V7H29V28Z" fill="#9DA2A5"/>
<path d="M24 1C24 0.447715 23.5523 0 23 0C22.4477 0 22 0.447715 22 1V3C22 3.55228 22.4477 4 23 4C23.5523 4 24 3.55228 24 3V1Z" fill="#9DA2A5"/>
<path d="M9 1C9 0.447715 8.55228 0 8 0C7.44772 0 7 0.447715 7 1V3C7 3.55228 7.44772 4 8 4C8.55228 4 9 3.55228 9 3V1Z" fill="#9DA2A5"/>
<path d="M8.16667 9H4.83333C4.3731 9 4 9.3731 4 9.83333V13.1667C4 13.6269 4.3731 14 4.83333 14H8.16667C8.6269 14 9 13.6269 9 13.1667V9.83333C9 9.3731 8.6269 9 8.16667 9Z" fill="#D65633"/>
<path d="M20.1667 9H16.8333C16.3731 9 16 9.3731 16 9.83333V13.1667C16 13.6269 16.3731 14 16.8333 14H20.1667C20.6269 14 21 13.6269 21 13.1667V9.83333C21 9.3731 20.6269 9 20.1667 9Z" fill="#C1C5C6"/>
<path d="M26.1667 9H22.8333C22.3731 9 22 9.3731 22 9.83333V13.1667C22 13.6269 22.3731 14 22.8333 14H26.1667C26.6269 14 27 13.6269 27 13.1667V9.83333C27 9.3731 26.6269 9 26.1667 9Z" fill="#C1C5C6"/>
<path d="M26.1667 15H22.8333C22.3731 15 22 15.3731 22 15.8333V19.1667C22 19.6269 22.3731 20 22.8333 20H26.1667C26.6269 20 27 19.6269 27 19.1667V15.8333C27 15.3731 26.6269 15 26.1667 15Z" fill="#C1C5C6"/>
<path d="M20.1667 15H16.8333C16.3731 15 16 15.3731 16 15.8333V19.1667C16 19.6269 16.3731 20 16.8333 20H20.1667C20.6269 20 21 19.6269 21 19.1667V15.8333C21 15.3731 20.6269 15 20.1667 15Z" fill="#C1C5C6"/>
<path d="M14.1667 15H10.8333C10.3731 15 10 15.3731 10 15.8333V19.1667C10 19.6269 10.3731 20 10.8333 20H14.1667C14.6269 20 15 19.6269 15 19.1667V15.8333C15 15.3731 14.6269 15 14.1667 15Z" fill="#C1C5C6"/>
<path d="M14.1667 9H10.8333C10.3731 9 10 9.3731 10 9.83333V13.1667C10 13.6269 10.3731 14 10.8333 14H14.1667C14.6269 14 15 13.6269 15 13.1667V9.83333C15 9.3731 14.6269 9 14.1667 9Z" fill="#C1C5C6"/>
<path d="M26.1667 21H22.8333C22.3731 21 22 21.3731 22 21.8333V25.1667C22 25.6269 22.3731 26 22.8333 26H26.1667C26.6269 26 27 25.6269 27 25.1667V21.8333C27 21.3731 26.6269 21 26.1667 21Z" fill="#75AD15"/>
<path d="M8 15V22.5H17.5V21L21 23.5L17.5 26V24.5H8H6V22.5V15H8Z" fill="#576672"/>
</svg>
