<svg width="32" height="32" viewBox="0 0 32 32" fill="none" xmlns="http://www.w3.org/2000/svg">
<path d="M1 4.75C1 2.67893 2.67893 1 4.75 1H27.25C29.3211 1 31 2.67893 31 4.75V27.25C31 29.3211 29.3211 31 27.25 31H4.75C2.67893 31 1 29.3211 1 27.25V4.75Z" fill="#A4305A"/>
<path d="M7.89188 24.4214V16C7.89188 15.1497 8.54633 14.4522 9.37901 14.3839C8.84685 13.0049 8.35347 11.7008 7.97883 10.6549C7.46914 9.43205 7.38612 7.83151 9.29745 6.73096C10.3799 6.09171 13.0214 4.48682 15.0067 3.28064C16.0591 2.6412 16.928 2.11334 17.2811 1.90151C17.7603 1.59699 18.134 1.29422 18.418 1H4.75024C2.67918 1 1.00024 2.67893 1.00024 4.75V13.9328C1.66579 15.1531 2.308 16.2717 2.94802 17.2954C4.61835 20.1241 6.6033 22.8275 7.89188 24.4214Z" fill="#D77598"/>
<path d="M17.5615 14.3784C17.2238 13.4706 16.9067 12.6019 16.6724 11.9207C16.3867 11.2069 16.3402 10.2726 17.4115 9.63022C18.0178 9.25728 19.4971 8.3213 20.6096 7.61736L20.6107 7.61669C21.2008 7.24331 21.6883 6.93482 21.8863 6.81114C22.9134 6.13129 23.1232 5.46492 22.8624 5.03815C22.3642 4.2228 20.8918 4.5028 19.7668 4.71672C19.7024 4.72898 19.639 4.74102 19.5771 4.75263C18.0059 5.03815 15.2205 5.82333 13.2922 6.60851C11.5067 7.32231 10.2329 8.08811 11.0989 10.5112C11.8118 11.9709 12.4444 13.254 13.0498 14.3784H17.5615Z" fill="#D77598"/>
<path d="M9.91895 27.7567H11.8386V22.9346H16.7489V27.7567H18.6736V16.4054H16.7489V21.2109H11.8386V16.4054H9.91895V27.7567Z" fill="white"/>
<path d="M20.47 27.7567H22.3896V23.5998H24.3455L26.4255 27.7567H28.5676L26.2754 23.2561C27.5224 22.7185 28.1795 21.5767 28.1795 20.0358C28.1795 17.8687 26.8756 16.4054 24.4438 16.4054H20.47V27.7567ZM22.3896 21.8926V18.1236H24.1488C25.5821 18.1236 26.2237 18.8275 26.2237 20.0358C26.2237 21.2441 25.5821 21.8926 24.1592 21.8926H22.3896Z" fill="white"/>
</svg>
