<svg id="Layer_1" data-name="Layer 1" xmlns="http://www.w3.org/2000/svg" viewBox="0 0 32 32"><title>Large4</title><polygon points="26 26 8 26 8 2 22 2 26 6 26 26" fill="#fff"/><path d="M26,6H22V2M20,0V7a1,1,0,0,0,1,1h7Z" fill="#9da2a5"/><polygon points="20 30 2 30 2 6 16 6 20 10 20 30" fill="#fff"/><path d="M20,10H16V6M14,4v7a1,1,0,0,0,1,1h7Z" fill="#9da2a5"/><rect x="4" y="16" width="14" height="2" fill="#adb1b2"/><rect x="4" y="20" width="14" height="2" fill="#adb1b2"/><rect x="4" y="24" width="14" height="2" fill="#adb1b2"/><rect x="21" y="24" width="10" height="6" transform="translate(-1 53) rotate(-90)" fill="#407fb9"/><polygon points="26 18 32 25 20 25 26 18" fill="#407fb9"/><path d="M21,2l5,5v9.08l2,2.33V6.5L21.5,0H7A1,1,0,0,0,6,1V3H8V2H21Z" fill="#9da2a5"/><path d="M20,30H2V6H15l5,5V23.08l2-2.33V10.5L15.5,4H1A1,1,0,0,0,0,5V31a1,1,0,0,0,1,1H21a1,1,0,0,0,1-1V26H20Z" fill="#9da2a5"/></svg>