<svg id="Layer_1" data-name="Layer 1" xmlns="http://www.w3.org/2000/svg" viewBox="0 0 32 32"><title>Holiday_large_2</title><path d="M8,18s-.6257-1.6949-.9783-.4034C5,25,10,29,10,29l2.8528-.4069S7,25,8,18Z" fill="#956939"/><path d="M14.4375,28.5A4.9869,4.9869,0,0,0,11,27.22C10.0933,27.5688,18,21,19,6c.2082-.4165.7786-.8039,1,0C20.8417,9.0566,20.7715,19.7907,14.4375,28.5Z" fill="#956939"/><path d="M19.4063,4.9688c.35.0375.9332-.4749,1.25-.4063,6.13,1.3284,6.3662,8.6184,6.23,11.3782a.3987.3987,0,0,1-.7172.2236C24.1031,13.4085,17.7653,4.7929,19.4063,4.9688Z" fill="#2f7705"/><path d="M31.4583,8.9583S25.3958-1.9583,19.4375,3.7188c1,.6875,5.5313,1.6875,6.5313,2.8437A12.987,12.987,0,0,0,31,9.6857C31.9167,9.9167,31.4583,8.9583,31.4583,8.9583Z" fill="#2f7705"/><path d="M19,5c-.6377-.1014-1.0119-.46-1.5625-.4375-5.7568.2379-7.0688,6.9808-7.3583,9.5a.3978.3978,0,0,0,.6463.3572C12.865,12.6805,19,7.4769,19,5Z" fill="#2f7705"/><path d="M19.0625,3.0313C13.1262-2.375,7.8641,4.9617,6.402,7.3162A.398.398,0,0,0,6.8,7.9194,15.46,15.46,0,0,0,13,5.2643a9.036,9.036,0,0,1,6.25-.5768C18.9724,4.3126,19.3649,3.3066,19.0625,3.0313Z" fill="#2f7705"/><path d="M18.9375,4.2188c.07-.2542.5671.0265.6875-.1875a8.2407,8.2407,0,0,1,2.9672-2.8036.2944.2944,0,0,0,.0065-.5061A3.1852,3.1852,0,0,0,18.5.9375C17.3438,2.125,18.9375,4.2188,18.9375,4.2188Z" fill="#2f7705"/><path d="M20.125,31c-1.2143-1.3778-9.7143-8.267-17,0Z" fill="#75ad15"/><ellipse cx="19" cy="4" rx="3" ry="2" fill="#2f7705"/><path d="M7.794,17.8466c.2091.001.578-.0612.7668-.0394,3.1051.3583,3.4352,3.19,3.4184,4.5053a.2977.2977,0,0,1-.5089.2063C10.2072,21.2581,6.87,17.8424,7.794,17.8466Z" fill="#2f7705"/><path d="M15.04,20l-.0247-.0042.0247.0349Z" fill="#2f7705"/><path d="M7.3959,16.9791c.2118-.0217.5814.8057.8229.8178,1.0666.0533,2.5872.0063,3.1562.5469,1.7647,1.3449,3.6458,2.01,3.4583,1.3437C14.4945,19.21,10.5833,13.9167,7.3959,16.9791Z" fill="#2f7705"/><path d="M7.4449,17.05A5.4238,5.4238,0,0,0,3.03,22.2752a.2981.2981,0,0,0,.4829.2625c1.1919-.9435,4.0721-3.12,4.4-5.0263A.4085.4085,0,0,0,7.4449,17.05Z" fill="#2f7705"/><path d="M7.2188,17.2656C3.4334,13.6581.3906,19.4531.3906,19.4531s-.4219.7969.5883.4133a8.568,8.568,0,0,0,2.8775-1.4352,3.6989,3.6989,0,0,1,3.3984-.7918C7.1558,17.5322,7.317,17.3592,7.2188,17.2656Z" fill="#2f7705"/><path d="M6.8281,15.6719c-.9237,1.1817.6427,1.7714.6427,1.7714.1539-.9242,1.1549-1.4415,1.6861-1.7609.2034-.1224.3215-.2118.1876-.2871A1.909,1.909,0,0,0,6.8281,15.6719Z" fill="#2f7705"/><ellipse cx="7.5" cy="17.6955" rx="1.817" ry="1.2979" transform="translate(-1.7663 0.8576) rotate(-5.8561)" fill="#2f7705"/></svg>