<svg width="32" height="32" viewBox="0 0 32 32" fill="none" xmlns="http://www.w3.org/2000/svg">
<g clip-path="url(#clip0)">
<path d="M30 12.9999H26.95C26.79 12.5499 25.84 10.8399 25.63 10.4199L27.3 8.74994C28.06 7.98994 28.3 7.37994 27.49 6.61994L24.75 3.87994C23.99 3.11994 23.64 3.73994 22.88 4.48994L21.12 6.24994C20.81 6.10994 19.32 5.16994 19 5.04994V1.99994C19 1.49994 19 0.999944 17.94 0.999944H14.06C13.9196 0.968674 13.7737 0.97227 13.6351 1.01042C13.4965 1.04857 13.3693 1.12011 13.2647 1.21878C13.1601 1.31745 13.0813 1.44024 13.0352 1.57642C12.989 1.7126 12.9769 1.85802 13 1.99994V5.04994C12.61 5.18994 11.07 6.11994 10.71 6.28994L8.49997 4.28994C7.74997 3.56994 7.99997 3.36994 6.82997 3.91994L4.08997 6.65994C3.94116 6.80599 3.82711 6.98365 3.75627 7.17976C3.68544 7.37586 3.65963 7.58539 3.68075 7.79283C3.70188 8.00026 3.76941 8.20028 3.87832 8.37808C3.98724 8.55588 4.13477 8.70689 4.30997 8.81994L6.15997 10.6699C5.99997 10.9999 5.18997 12.6099 5.04997 12.9999H1.99997C1.8624 12.9699 1.71947 12.9749 1.58434 13.0145C1.4492 13.0541 1.32619 13.127 1.22662 13.2266C1.12705 13.3262 1.0541 13.4492 1.0145 13.5843C0.974893 13.7195 0.969896 13.8624 0.999966 13.9999V17.9999C0.999966 18.8999 2.25997 18.9999 1.99997 18.9999H4.99997C5.10997 19.3199 5.93997 20.6899 6.07997 20.9999L4.07997 22.9999C3.31997 23.7599 3.02997 24.5599 3.77997 25.3199L6.49997 28.0799C7.25997 28.8399 7.67997 28.5599 8.43997 27.8099L10.37 25.8799C10.79 26.0899 12.51 26.8799 12.95 27.0899L13 29.9999C13.13 30.2499 12.93 30.9999 14 30.9999H18C18.2652 30.9999 18.5195 30.8946 18.7071 30.7071C18.8946 30.5195 19 30.2652 19 29.9999V26.9999C19.39 26.8599 20.71 25.9199 21.08 25.7499L22.93 27.5999C23.0585 27.7856 23.2276 27.9396 23.4244 28.0503C23.6212 28.161 23.8405 28.2255 24.0659 28.239C24.2913 28.2525 24.5168 28.2145 24.7254 28.1281C24.934 28.0416 25.1202 27.9089 25.27 27.7399L28 24.9999C28.76 24.2399 28.23 24.0599 27.47 23.3099L25.62 21.4599C25.79 21.0899 26.81 19.3899 26.94 18.9999H30C30.14 19.0139 30.2815 18.9956 30.4133 18.9463C30.5452 18.8971 30.664 18.8182 30.7606 18.7158C30.8572 18.6134 30.929 18.4902 30.9705 18.3557C31.012 18.2212 31.0221 18.079 31 17.9399V14.0599C31.0221 13.9209 31.012 13.7787 30.9705 13.6442C30.929 13.5097 30.8572 13.3865 30.7606 13.2841C30.664 13.1817 30.5452 13.1028 30.4133 13.0536C30.2815 13.0043 30.14 12.986 30 12.9999V12.9999ZM16 20.8799C15.3489 20.9211 14.6965 20.823 14.0863 20.5922C13.4761 20.3614 12.9221 20.0032 12.4613 19.5414C12.0004 19.0796 11.6433 18.5249 11.4138 17.9142C11.1842 17.3035 11.0874 16.651 11.13 15.9999C11.1233 15.3585 11.2447 14.7223 11.487 14.1284C11.7294 13.5345 12.0879 12.995 12.5414 12.5414C12.995 12.0879 13.5345 11.7294 14.1284 11.487C14.7223 11.2447 15.3586 11.1233 16 11.1299C17.283 11.1603 18.5051 11.6829 19.4135 12.5894C20.3219 13.4959 20.847 14.717 20.88 15.9999C20.8936 16.6445 20.7767 17.2852 20.5363 17.8834C20.2959 18.4817 19.9369 19.0251 19.481 19.481C19.0251 19.9369 18.4817 20.2958 17.8835 20.5363C17.2852 20.7767 16.6446 20.8936 16 20.8799V20.8799Z" fill="white"/>
<path d="M29.8361 23.3288C29.827 23.5627 29.7563 23.8008 29.6176 24.0104C29.2995 24.4912 28.6805 24.7032 28.1384 24.5005C27.867 24.3989 27.6571 24.2134 27.5188 24.0001C27.0961 23.3466 26.3419 22.1665 25.6123 20.9528C25.5775 21.5252 25.5172 22.1329 25.4268 22.7637C25.123 24.8842 24.4681 27.3498 23.2247 29.7194C24.2866 30.2597 25.0597 30.8984 25.3676 31.2292L27.0159 33H12.7339L14.3822 31.2292C15.1705 30.3823 16.0014 29.7851 16.8476 29.3935C16.6153 28.8171 16.4128 28.1332 16.2985 27.3465C16.0319 27.532 15.7765 27.7067 15.4407 27.733C15.2242 27.7499 15.0014 27.7112 14.7973 27.6133C14.5928 27.5153 14.4038 27.3557 14.2723 27.1364C14.157 26.9441 14.0946 26.7192 14.1002 26.4863C13.734 26.6023 13.3452 26.7338 12.958 26.6635C12.765 26.6285 12.5288 26.5373 12.3291 26.3339C12.1283 26.1294 12.0429 25.8913 12.0137 25.7011C11.9304 25.158 12.2391 24.7095 12.5532 24.3012C12.767 24.0234 13.0883 23.6525 13.5025 23.3188C13.9135 22.9878 14.4616 22.6565 15.1253 22.5285C15.5384 22.4487 15.9714 22.453 16.4103 22.5616C16.492 22.3652 16.6004 22.1664 16.7451 21.9894C16.9085 21.7896 17.1655 21.5621 17.532 21.4656C17.8582 21.3797 18.1414 21.4161 18.3793 21.5146C18.4752 20.8657 18.6461 20.0197 18.9505 19.1606C18.9672 19.1135 18.9844 19.0661 19.0021 19.0185C18.4088 19.1819 17.6411 19.4586 17.0289 19.2378C16.3456 18.9913 16.2277 18.4535 16.2001 18.1003C16.195 17.8101 16.2948 17.5459 16.4509 17.3416C16.8434 16.8289 17.6956 15.819 18.8683 15.0558C19.8884 14.392 21.2424 13.8609 22.7664 14.1179C23.2557 13.3516 24.2938 13.037 25.1515 13.0031C25.8257 12.9764 26.5123 13.1246 27.097 13.4501C27.2466 13.5279 27.3984 13.6449 27.5208 13.8117C27.5926 13.9094 27.652 14.0219 27.6923 14.1455C28.8316 14.3926 29.8257 15.0701 30.5517 15.712C31.2307 16.3124 31.7829 16.9675 32.1615 17.4644C32.5301 17.9481 32.9999 18.5041 33 19.1432C33 19.3963 32.9147 19.8897 32.4247 20.1873C31.5386 20.7256 30.272 19.9679 29.5024 19.5393C29.522 19.619 29.5404 19.6982 29.5577 19.7767C29.8657 21.1719 29.8694 22.5413 29.8361 23.3288Z" fill="white"/>
<path fill-rule="evenodd" clip-rule="evenodd" d="M18 4.7V2H14V4.7C14.0054 5.11204 13.8835 5.51571 13.6508 5.8558C13.4181 6.1959 13.086 6.45581 12.7 6.6C12.3597 6.71527 12.0259 6.8488 11.7 7C11.3244 7.17671 10.9031 7.23218 10.4946 7.15871C10.0861 7.08525 9.7105 6.88649 9.42 6.59L7.51 4.69L4.69 7.51L6.6 9.39C6.89319 9.68282 7.08818 10.0595 7.15805 10.4679C7.22791 10.8763 7.16919 11.2964 6.99 11.67C6.8388 11.9959 6.70527 12.3297 6.59 12.67C6.45133 13.06 6.19507 13.3974 5.85655 13.6356C5.51803 13.8738 5.11393 14.0012 4.7 14H2V18H4.7C5.11052 18.003 5.51018 18.1322 5.84472 18.3701C6.17926 18.6081 6.43248 18.9432 6.57 19.33C6.67 19.62 6.78 19.9 6.9 20.15C7.07112 20.521 7.12452 20.9355 7.05301 21.3378C6.9815 21.74 6.78851 22.1107 6.5 22.4L4.41 24.49L7.24 27.31L9.24 25.31C9.5363 25.012 9.91894 24.8149 10.3336 24.7467C10.7482 24.6785 11.1739 24.7426 11.55 24.93C11.7155 25.0132 11.8832 25.0918 12.053 25.1656C12.0032 25.3342 11.9847 25.5119 12.0137 25.7011C12.0429 25.8913 12.1283 26.1294 12.3291 26.3339C12.5288 26.5373 12.765 26.6285 12.958 26.6635C13.2618 26.7186 13.5666 26.6496 13.8607 26.5612C13.9529 26.7951 14.0007 27.0457 14 27.3V30H15.7901C15.31 30.3316 14.8389 30.7385 14.3822 31.2292L13.6876 31.9755C13.2729 31.9099 12.8864 31.7148 12.5858 31.4142C12.2107 31.0391 12 30.5304 12 30V27.3C11.5421 27.1375 11.0946 26.9471 10.66 26.73L8.66 28.73C8.47425 28.916 8.25368 29.0635 8.01088 29.1641C7.76808 29.2648 7.50783 29.3166 7.245 29.3166C6.98217 29.3166 6.72192 29.2648 6.47912 29.1641C6.23632 29.0635 6.01575 28.916 5.83 28.73L3 25.9C2.81405 25.7143 2.66653 25.4937 2.56588 25.2509C2.46523 25.0081 2.41343 24.7478 2.41343 24.485C2.41343 24.2222 2.46523 23.9619 2.56588 23.7191C2.66653 23.4763 2.81405 23.2557 3 23.07L5.09 21C4.95 20.66 4.82 20.33 4.7 20H2C1.46957 20 0.960859 19.7893 0.585786 19.4142C0.210714 19.0391 0 18.5304 0 18V14C0 13.4696 0.210714 12.9609 0.585786 12.5858C0.960859 12.2107 1.46957 12 2 12H4.7C4.83948 11.6052 4.9997 11.218 5.18 10.84L3.27 8.93C3.08405 8.74425 2.93653 8.52368 2.83588 8.28088C2.73523 8.03808 2.68343 7.77783 2.68343 7.515C2.68343 7.25217 2.73523 6.99192 2.83588 6.74912C2.93653 6.50632 3.08405 6.28575 3.27 6.1L6.1 3.27C6.28575 3.08405 6.50632 2.93653 6.74912 2.83588C6.99192 2.73523 7.25217 2.68343 7.515 2.68343C7.77783 2.68343 8.03808 2.73523 8.28088 2.83588C8.52368 2.93653 8.74425 3.08405 8.93 3.27L10.84 5.18C11.218 4.99972 11.6052 4.8395 12 4.7V2C12 1.46957 12.2107 0.960859 12.5858 0.585786C12.9609 0.210714 13.4696 0 14 0H18C18.5304 0 19.0391 0.210714 19.4142 0.585786C19.7893 0.960859 20 1.46957 20 2V4.7C20.35 4.81 20.68 4.94 21 5.09L22.8 3.27C22.9857 3.08405 23.2063 2.93653 23.4491 2.83588C23.6919 2.73523 23.9522 2.68343 24.215 2.68343C24.4778 2.68343 24.7381 2.73523 24.9809 2.83588C25.2237 2.93653 25.4443 3.08405 25.63 3.27L28.45 6.1C28.636 6.28575 28.7835 6.50632 28.8841 6.74912C28.9848 6.99192 29.0366 7.25217 29.0366 7.515C29.0366 7.77783 28.9848 8.03808 28.8841 8.28088C28.7835 8.52368 28.636 8.74425 28.45 8.93L26.73 10.65C26.9475 11.0879 27.1379 11.5387 27.3 12H30C30.5304 12 31.0391 12.2107 31.4142 12.5858C31.7893 12.9609 32 13.4696 32 14V17.2566C31.6326 16.7929 31.1397 16.2319 30.5517 15.712C30.3819 15.5619 30.1975 15.4099 30 15.2618V14H27.6339C27.6015 13.9326 27.5633 13.8695 27.5208 13.8117C27.3984 13.6449 27.2466 13.5279 27.097 13.4501C26.6354 13.1932 26.1103 13.0466 25.5779 13.0095C25.5151 12.902 25.4621 12.7884 25.42 12.67C25.2829 12.2873 25.1226 11.9132 24.94 11.55C24.7526 11.1739 24.6885 10.7482 24.7567 10.3336C24.8249 9.91894 25.022 9.5363 25.32 9.24L27 7.51L24.22 4.7L22.4 6.52C22.1107 6.80851 21.74 7.0015 21.3378 7.07301C20.9355 7.14452 20.521 7.09112 20.15 6.92C19.89 6.8 19.62 6.69 19.33 6.59C18.94 6.45133 18.6026 6.19507 18.3644 5.85655C18.1262 5.51803 17.9988 5.11393 18 4.7ZM21.6782 14.0613C21.3831 13.1971 20.8934 12.4081 20.2426 11.7574C19.4035 10.9182 18.3344 10.3468 17.1705 10.1153C16.0067 9.88378 14.8003 10.0026 13.7039 10.4567C12.6075 10.9108 11.6705 11.6799 11.0112 12.6666C10.3519 13.6533 10 14.8133 10 16C10 17.5913 10.6321 19.1174 11.7574 20.2426C12.8826 21.3679 14.4087 22 16 22C16.2615 22 16.5217 21.9829 16.779 21.9492C16.9432 21.76 17.1899 21.5557 17.532 21.4656C17.8547 21.3807 18.1352 21.4154 18.3715 21.5114C18.3745 21.5102 18.3774 21.5089 18.3804 21.5076C18.4765 20.8596 18.6472 20.0166 18.9505 19.1606C18.9672 19.1135 18.9844 19.0661 19.0021 19.0185C18.9296 19.0384 18.8545 19.0601 18.7774 19.0823C18.6637 19.1151 18.5458 19.1491 18.4254 19.1808C17.7324 19.7092 16.8812 20 16 20C15.2089 20 14.4355 19.7654 13.7777 19.3259C13.1199 18.8864 12.6072 18.2616 12.3045 17.5307C12.0017 16.7998 11.9225 15.9956 12.0769 15.2196C12.2312 14.4437 12.6122 13.731 13.1716 13.1716C13.731 12.6122 14.4437 12.2312 15.2196 12.0769C15.9956 11.9225 16.7998 12.0017 17.5307 12.3045C18.2616 12.6072 18.8864 13.1199 19.3259 13.7777C19.493 14.0278 19.6305 14.2946 19.7367 14.5728C20.3198 14.3023 20.9735 14.1057 21.6782 14.0613ZM24.3297 27.1997L24.48 27.35L27.31 24.52L25.4425 22.6525C25.5242 22.0614 25.5795 21.4915 25.6123 20.9528C26.3419 22.1665 27.0961 23.3466 27.5188 24.0001C27.6571 24.2134 27.867 24.3989 28.1384 24.5005C28.5378 24.6499 28.9789 24.5741 29.3107 24.3316C29.3146 24.3825 29.3166 24.4337 29.3166 24.485C29.3166 24.7478 29.2648 25.0081 29.1641 25.2509C29.0635 25.4937 28.916 25.7143 28.73 25.9L25.9 28.73C25.7143 28.916 25.4937 29.0635 25.2509 29.1641C25.0081 29.2648 24.7478 29.3166 24.485 29.3166C24.2222 29.3166 23.9619 29.2648 23.7191 29.1641C23.6595 29.1394 23.6012 29.1118 23.5444 29.0816C23.8439 28.4555 24.1042 27.8256 24.3297 27.1997ZM29.6045 20H30C30.1064 20 30.2119 19.9915 30.3157 19.9749C30.0595 19.8511 29.8188 19.7163 29.6087 19.5987C29.5723 19.5783 29.5369 19.5585 29.5024 19.5393C29.522 19.619 29.5404 19.6982 29.5577 19.7767C29.5742 19.8512 29.5898 19.9257 29.6045 20Z" fill="#6FA6D4"/>
<path d="M17.9392 24.1274C17.9392 24.1274 17.6261 23.0766 17.4496 23.8773C16.438 28.4672 18.94 30.9471 18.94 30.9471L20.3676 30.6948C20.3676 30.6948 17.4388 28.4672 17.9392 24.1274Z" fill="#956939"/>
<path d="M21.2701 30.947C20.7455 30.4417 20.0607 30.169 19.355 30.1842C18.8498 30.3921 23.2549 26.4773 23.812 17.538C23.928 17.2897 24.2458 17.0589 24.3691 17.538C24.838 19.3596 24.7989 25.7566 21.2701 30.947Z" fill="#956939"/>
<path d="M24.7248 16.4641C24.9144 16.4876 25.2304 16.1667 25.4021 16.2097C28.7238 17.0417 28.8518 21.6079 28.778 23.3365C28.7763 23.388 28.7607 23.4376 28.7336 23.4786C28.7065 23.5195 28.669 23.5497 28.6265 23.565C28.5839 23.5804 28.5382 23.5801 28.4958 23.5643C28.4533 23.5484 28.4162 23.5178 28.3894 23.4766C27.2699 21.7504 23.8355 16.354 24.7248 16.4641Z" fill="#2F7705"/>
<path d="M31.8804 18.9438C31.8804 18.9438 28.1982 12.9251 24.5793 16.0551C25.1867 16.4341 27.9389 16.9854 28.5462 17.6229C29.4052 18.4028 30.4509 18.9921 31.602 19.3448C32.1588 19.4722 31.8804 18.9438 31.8804 18.9438Z" fill="#2F7705"/>
<path d="M24.5794 16.4842C24.2032 16.4198 23.9825 16.192 23.6576 16.2063C20.2613 16.3574 19.4873 20.6397 19.3165 22.2396C19.3107 22.2897 19.319 22.3405 19.3403 22.3854C19.3615 22.4304 19.3948 22.4675 19.4359 22.4919C19.4769 22.5163 19.5238 22.5269 19.5704 22.5224C19.6171 22.5178 19.6615 22.4984 19.6978 22.4665C20.96 21.3619 24.5794 18.0572 24.5794 16.4842Z" fill="#2F7705"/>
<path d="M24.4723 16.0511C21.0825 13.5532 18.0777 16.943 17.2428 18.0309C17.22 18.0607 17.2081 18.0953 17.2088 18.1304C17.2094 18.1655 17.2224 18.1998 17.2463 18.2291C17.2702 18.2584 17.304 18.2815 17.3437 18.2958C17.3833 18.3101 17.4272 18.3149 17.4701 18.3096C18.7474 18.1165 19.9563 17.6976 21.0105 17.0829C22.1225 16.6518 23.3886 16.5573 24.5794 16.8163C24.4209 16.6431 24.645 16.1783 24.4723 16.0511Z" fill="#2F7705"/>
<path d="M24.1082 16.2058C24.1557 16.0765 24.4926 16.2192 24.5742 16.1104C25.0747 15.5163 25.7663 15.0261 26.5855 14.6849C26.6155 14.672 26.6405 14.6534 26.658 14.631C26.6754 14.6086 26.6849 14.5832 26.6853 14.5572C26.6858 14.5313 26.6772 14.5057 26.6605 14.483C26.6438 14.4602 26.6195 14.4412 26.5899 14.4276C26.1839 14.1973 25.6824 14.082 25.1741 14.1021C24.6657 14.1222 24.1832 14.2764 23.8116 14.5374C23.0279 15.1412 24.1082 16.2058 24.1082 16.2058Z" fill="#2F7705"/>
<path d="M24.5793 32.0001C23.9024 31.2747 19.1642 27.6477 15.1028 32.0001H24.5793Z" fill="#75AD15"/>
<path d="M24.0529 17.2587C24.9252 17.2587 25.6324 16.7873 25.6324 16.2058C25.6324 15.6243 24.9252 15.1528 24.0529 15.1528C23.1806 15.1528 22.4735 15.6243 22.4735 16.2058C22.4735 16.7873 23.1806 17.2587 24.0529 17.2587Z" fill="#2F7705"/>
<path d="M17.3247 24.6487C17.4767 24.6491 17.7449 24.6219 17.8821 24.6314C20.1394 24.7885 20.3794 26.0298 20.3672 26.6063C20.3667 26.632 20.3536 26.6571 20.3295 26.6783C20.3055 26.6996 20.2716 26.7161 20.2321 26.7257C20.1925 26.7354 20.1492 26.7378 20.1074 26.7326C20.0656 26.7275 20.0273 26.715 19.9972 26.6968C19.079 26.1441 16.653 24.6469 17.3247 24.6487Z" fill="#2F7705"/>
<path d="M17.2087 24.0861C17.3285 24.0744 17.5374 24.5192 17.6739 24.5257C18.2769 24.5543 19.1365 24.529 19.4582 24.8196C20.4558 25.5425 21.5192 25.9 21.4132 25.5418C21.2217 25.2852 19.0106 22.4401 17.2087 24.0861Z" fill="#2F7705"/>
<path d="M17.9566 23.5792C17.1656 23.7108 16.4503 24.0778 15.9307 24.6186C15.4112 25.1594 15.1192 25.8411 15.1037 26.5489C15.1 26.5821 15.1074 26.6156 15.1251 26.645C15.1429 26.6745 15.1701 26.6988 15.2034 26.7147C15.2367 26.7306 15.2747 26.7376 15.3124 26.7346C15.3502 26.7317 15.3862 26.719 15.4158 26.6981C16.186 26.1619 18.0471 24.9249 18.259 23.8415C18.2648 23.8055 18.261 23.7688 18.2478 23.7344C18.2346 23.7 18.2124 23.6688 18.183 23.6433C18.1536 23.6177 18.1178 23.5987 18.0784 23.5876C18.0391 23.5764 17.9974 23.5736 17.9566 23.5792V23.5792Z" fill="#2F7705"/>
<path d="M17.1869 24.2171C14.8935 22.2632 13.0499 25.4019 13.0499 25.4019C13.0499 25.4019 12.7943 25.8335 13.4063 25.6258C14.0371 25.4673 14.6287 25.2036 15.1497 24.8484C15.427 24.631 15.7599 24.4781 16.1191 24.4033C16.4783 24.3285 16.8526 24.3341 17.2087 24.4196C17.1488 24.3615 17.2464 24.2678 17.1869 24.2171Z" fill="#2F7705"/>
<path d="M17.3159 23.0739C16.9764 24.1115 17.5521 24.6293 17.5521 24.6293C17.6087 23.8178 17.9766 23.3636 18.1718 23.0831C18.2466 22.9756 18.29 22.8971 18.2407 22.831C18.1008 22.5946 17.9294 22.4887 17.759 22.5335C17.5887 22.5782 17.431 22.7704 17.3159 23.0739V23.0739Z" fill="#2F7705"/>
<path d="M17.6422 25.046C18.2201 24.9868 18.6542 24.6041 18.6119 24.1913C18.5695 23.7786 18.0668 23.492 17.4889 23.5513C16.9111 23.6105 16.4769 23.9932 16.5193 24.406C16.5616 24.8187 17.0644 25.1053 17.6422 25.046Z" fill="#2F7705"/>
</g>
<defs>
<clipPath id="clip0">
<rect width="32" height="32" fill="white"/>
</clipPath>
</defs>
</svg>
