<svg width="32" height="32" viewBox="0 0 32 32" fill="none" xmlns="http://www.w3.org/2000/svg">
<g clip-path="url(#clip0)">
<path d="M22 29H2V2H19L22 5V29Z" fill="white"/>
<path d="M12.7332 19.3441C12.6915 19.7175 12.3758 20 12 20C11.6242 20 11.3085 19.7175 11.2668 19.3441L10.1241 9.11098C10.0579 8.51843 10.5217 8 11.1179 8H12.8821C13.4783 8 13.9421 8.51843 13.8759 9.11098L12.7332 19.3441Z" fill="#FF4646"/>
<path d="M12 26C13.1046 26 14 25.1046 14 24C14 22.8954 13.1046 22 12 22C10.8954 22 10 22.8954 10 24C10 25.1046 10.8954 26 12 26Z" fill="#FF4646"/>
<path d="M31 16C30.7348 16 30.4804 16.1054 30.2929 16.2929C30.1054 16.4804 30 16.7348 30 17V20H27C26.7348 20 26.4804 20.1054 26.2929 20.2929C26.1054 20.4804 26 20.7348 26 21C26 21.2652 26.1054 21.5196 26.2929 21.7071C26.4804 21.8946 26.7348 22 27 22H32V17C32 16.7348 31.8946 16.4804 31.7071 16.2929C31.5196 16.1054 31.2652 16 31 16Z" fill="#407FB9"/>
<path d="M16 31C16.2652 31 16.5196 30.8946 16.7071 30.7071C16.8946 30.5196 17 30.2652 17 30V27H20C20.2652 27 20.5196 26.8946 20.7071 26.7071C20.8946 26.5196 21 26.2652 21 26C21 25.7348 20.8946 25.4804 20.7071 25.2929C20.5196 25.1054 20.2652 25 20 25H15V30C15 30.2652 15.1054 30.5196 15.2929 30.7071C15.4804 30.8946 15.7348 31 16 31Z" fill="#407FB9"/>
<path d="M17.4801 23C17.7026 21.5278 18.417 20.1744 19.5071 19.1602C20.5971 18.146 21.9984 17.5308 23.4828 17.4148C24.9671 17.2988 26.447 17.6889 27.6813 18.5216C28.9157 19.3542 29.8316 20.5802 30.2801 22H31.7301C31.2537 20.2118 30.1722 18.644 28.6697 17.5638C27.1672 16.4835 25.3366 15.9575 23.4898 16.0755C21.643 16.1934 19.8942 16.9479 18.5413 18.2105C17.1884 19.4731 16.3151 21.1657 16.0701 23H17.4801Z" fill="#407FB9"/>
<path d="M30.6001 24C30.594 25.6594 29.963 27.2556 28.8329 28.4707C27.7027 29.6858 26.1563 30.4306 24.5017 30.5567C22.8471 30.6828 21.2057 30.181 19.9044 29.1512C18.6032 28.1215 17.7376 26.6393 17.4801 25H16.0701C16.3371 27.0079 17.3558 28.8397 18.9206 30.1258C20.4855 31.4119 22.4799 32.0566 24.5015 31.9297C26.523 31.8028 28.4212 30.9138 29.8129 29.4421C31.2046 27.9703 31.9862 26.0255 32.0001 24H30.6001Z" fill="#407FB9"/>
<path d="M22 6H18V2L22 6ZM16 0V7C16 7.26522 16.1054 7.51957 16.2929 7.70711C16.4804 7.89464 16.7348 8 17 8H24L16 0Z" fill="#9DA2A5"/>
<path d="M14 29H2V2H17L22 7V15H24V6.5L17.5 0H1C0.734784 0 0.48043 0.105357 0.292893 0.292893C0.105357 0.48043 0 0.734784 0 1V30C0 30.2652 0.105357 30.5196 0.292893 30.7071C0.48043 30.8946 0.734784 31 1 31H14V29Z" fill="#9DA2A5"/>
</g>
<defs>
<clipPath id="clip0">
<rect width="32" height="32" fill="white"/>
</clipPath>
</defs>
</svg>
