<svg fill="none" xmlns="http://www.w3.org/2000/svg" viewBox="0 0 16 16">
  <path d="M11 15H1V1h8.5L11 2.5V15z" fill="#fff"/>
  <path fill-rule="evenodd" clip-rule="evenodd" d="M1 0h8.4L12 2.6V7h-1V4H9a1 1 0 01-1-1V1H1v14h5v1H1a1 1 0 01-1-1V1a1 1 0 011-1zm8 1v2h2L9 1z" fill="#798288"/>
  <path d="M6.367 9.672a.369.369 0 01-.733 0L5.11 4.994a.895.895 0 111.778 0l-.522 4.678zM6 13a1 1 0 100-2 1 1 0 000 2z" fill="#FF4646"/>
  <path d="M15.5 11h-2a.5.5 0 010-1H15V8.5a.5.5 0 011 0v2a.5.5 0 01-.5.5zm-7 2h2a.5.5 0 010 1H9v1.5a.5.5 0 01-1 0v-2a.5.5 0 01.5-.5z" fill="#407FB9"/>
  <path d="M12 15a3 3 0 01-2.22-1H8.55A4 4 0 0016 12h-1a3 3 0 01-3 3zm0-6a3 3 0 012.22 1h1.23A4 4 0 008 12h1a3 3 0 013-3z" fill="#407FB9"/>
</svg>
